<svg xmlns="http://www.w3.org/2000/svg" fill="none" viewBox="0 0 24 24" id="Builder-Io-Icon--Streamline-Svg-Logos" height="24" width="24">
  <desc>
    Builder Io Icon Streamline Icon: https://streamlinehq.com
  </desc>
  <path fill="#18b4f4" d="M22.275975 6.85875c0.00105 0.98595 -0.2185 1.959275 -0.642925 2.848775 -0.4244 0.8895 -1.04275 1.6727 -1.8095 2.291775L2.18979 1.9858425c-0.0673425 -0.03858 -0.129775 -0.08488 -0.186245 -0.138545 -0.08839 -0.0866325 -0.1585375 -0.1901025 -0.20659 -0.304095 -0.0480525 -0.114345 -0.072955 -0.237105 -0.072955 -0.36092 0 -0.247275 0.0982075 -0.48438 0.27288 -0.65905C2.1715525 0.34821 2.408655 0.25 2.655925 0.25h13.01445c1.751975 0 3.43205 0.6962325 4.670875 1.93577 1.23885 1.23918 1.934725 2.920305 1.934725 4.67298Z" stroke-width="0.25"></path>
  <path fill="#fd6b3c" d="M22.275975 17.139525c0.00035 0.8681 -0.170475 1.727775 -0.502275 2.529575 -0.3318 0.80215 -0.8183 1.531 -1.43175 2.1448 -0.61345 0.613825 -1.34195 1.10065 -2.1434 1.4328 -0.801475 0.332525 -1.6608 0.503325 -2.5282 0.503325H2.655925c-0.1845 -0.0021 -0.3640825 -0.058575 -0.516305 -0.16275 -0.1518725 -0.10415 -0.270075 -0.251125 -0.33847 -0.4223 -0.0687475 -0.17115 -0.0852325 -0.3588 -0.047 -0.539425 0.03788 -0.1803 0.1283725 -0.3455 0.2602525 -0.474575 0.0526125 -0.0526 0.1115375 -0.09855 0.175375 -0.136775L9.12965 18.07355l10.6925 -6.072825c0.766375 0.619075 1.38475 1.40195 1.8095 2.291075 0.42475 0.88915 0.644675 1.862475 0.644325 2.847725Z" stroke-width="0.25"></path>
  <path fill="#a97ff2" d="M19.82345 11.999425 9.12955 18.07365 2.1900325 22.014275c-0.0666425 0.037175 -0.1283725 0.082425 -0.18344 0.135375C4.652625 19.434525 6.132075 15.791325 6.128925 11.999425c0.0049 -3.792625 -1.4742 -7.436525 -4.12093 -10.1520125 0.05647 0.053665 0.1189025 0.0999625 0.1865975 0.138545L19.82345 11.999425Z" stroke-width="0.25"></path>
</svg>